<svg xmlns="http://www.w3.org/2000/svg" viewBox="0 0 375 667"><defs><style>.cls-1{fill:#bf9090;}.cls-2{fill:#c9a09f;}.cls-3{fill:#d8aeab;}.cls-4{fill:#ef736a;}.cls-5{fill:#e9bdb8;}.cls-6{fill:#db6461;}.cls-7{fill:#c45151;}.cls-8{fill:#e2b8b5;}.cls-9{fill:#d3a8a5;}.cls-10{fill:#edb2ae;}.cls-11,.cls-14,.cls-16{fill:none;stroke-linecap:round;}.cls-11{stroke:#281d23;stroke-linejoin:round;}.cls-12{fill:#281d23;}.cls-13{fill:#eaeaea;}.cls-14{stroke:#ce9b97;}.cls-14,.cls-16{stroke-miterlimit:10;}.cls-15{fill:#c6a7a7;}.cls-16{stroke:#c45151;}.cls-17{fill:#eacca7;}.cls-18{fill:#ff6e6e;}.cls-19{fill:#f9dab0;}.cls-20{fill:#e5c439;}.cls-21{fill:#efce43;}.cls-22{fill:#389e61;}.cls-23{fill:#42ad70;}.cls-24{fill:#4abc7d;}.cls-25{fill:#4dcb8b;}.cls-26{fill:#22463c;opacity:0.53;}.cls-27{fill:#f9d43a;}.cls-28{font-size:14.07px;fill:#fff2ee;font-family:BalooTamma2-Medium, "Baloo Tamma 2";font-weight:500;}</style></defs><title>Slide 4</title><g id="l._Unterarm" data-name="l. Unterarm"><g id="l._Unterarm-2" data-name="l. Unterarm"><path class="cls-1" d="M257,455.43,263,442l-3.11-1.06s-2,8-2,7.87-1.38,2.76-1.91,4.08a2,2,0,0,0,.77,2.4Z"/><path class="cls-2" d="M256.67,458.32l5.95-13.47-3.11-1.06s-2,8-2,7.87-1.4,2.83-1.94,4.17a1.85,1.85,0,0,0,.73,2.25Z"/><path class="cls-3" d="M257.59,459.69l6-13.48-3.11-1.06s-2,8-2,7.88-1.45,3-2,4.3a1.67,1.67,0,0,0,.65,2Z"/><polygon class="cls-4" points="257.83 457.98 257.35 459.52 257.6 459.7 258.35 457.92 257.83 457.98"/><path class="cls-5" d="M258.15,374.35a7.6,7.6,0,0,1,7.1,6.4c1.05,6.2-1.53,52.48-1.52,53.57s1.77,8.31,2.27,10.38a1.61,1.61,0,0,1-.1,1.06l-3,6.4-3.59,6.27-.69,1.26-.68-.64a1.49,1.49,0,0,1-.37-1.59l2.22-5.27,1-3.89-1.63-4-1.49,2.79-.22,3a1.88,1.88,0,0,1-.86,1.46l-.81.51-1.25-4.59-.13-3.74,2.34-4.72-4-59.42a2.37,2.37,0,0,1,.19-1.15A6.38,6.38,0,0,1,258.15,374.35Z"/><polygon class="cls-4" points="259.05 458 258.4 459.47 258.63 459.69 259.57 458 259.05 458"/><polygon class="cls-6" points="256.3 451.7 256.11 450.37 255.22 450.02 255.77 452.03 256.3 451.7"/></g></g><g id="Haare"><path class="cls-7" d="M220.64,260.15s-14.74-3.22-22.3,8c-6.49,9.59-1.35,29.47-1.35,29.47s.1,14.5,6.51,26.19-6.67,30.45-6.67,30.45l36,31.16,15.13-13s-12.25-44.13-10.37-58.43,8.29-27.5,2.57-39.13S220.64,260.15,220.64,260.15Z"/></g><g id="l.Oberarm"><path class="cls-5" d="M232.17,319.23a37,37,0,0,1,21,23.1c4.24,13.49,9.21,29,11.33,35.63a9.14,9.14,0,0,1-.3,6.35h0a5.37,5.37,0,0,1-4,3.17h0a5.36,5.36,0,0,1-5.07-2h0a33,33,0,0,1-3.47-5.42l-17.35-34.22A30.57,30.57,0,0,1,232.17,319.23Z"/></g><g id="r._Oberarm" data-name="r. Oberarm"><path id="r._Oberarm-2" data-name="r. Oberarm" class="cls-5" d="M211.64,319.59s-14,3.08-18.28,14.76S181.18,376,181.18,376s-.08,7.37,4.85,8.14,7.51-5.13,7.51-5.13l8.75-26.27a27.27,27.27,0,0,1,15.32-16.52l5.7-2.4Z"/></g><g id="r._Unterarm" data-name="r. Unterarm"><g id="r._Unterarm-2" data-name="r. Unterarm"><path class="cls-1" d="M176.25,451.56l-3.61-14.27,3.24-.53s.68,8.21.65,8.1.9,2.94,1.2,4.33a2,2,0,0,1-1.16,2.24Z"/><path class="cls-2" d="M176.1,454.47l-3.61-14.28,3.24-.53s.67,8.21.65,8.1.91,3,1.22,4.43a1.85,1.85,0,0,1-1.09,2.1Z"/><path class="cls-3" d="M175,455.66l-3.61-14.27,3.24-.53s.68,8.21.65,8.09.95,3.17,1.26,4.58a1.68,1.68,0,0,1-1,1.9Z"/><polygon class="cls-4" points="175.01 453.94 175.23 455.53 174.95 455.68 174.51 453.8 175.01 453.94"/><path class="cls-5" d="M188.66,371.43a7.59,7.59,0,0,0-8.07,5.12c-2.07,5.94-7.25,52-7.44,53.08s-3.14,7.89-4,9.86a1.58,1.58,0,0,0-.07,1.05l1.87,6.82,2.49,6.78.48,1.35.78-.52a1.5,1.5,0,0,0,.63-1.5L174,447.9l-.32-4,2.28-3.69,1,3-.29,3a1.9,1.9,0,0,0,.62,1.59l.71.64,2-4.32.75-3.67-1.52-5,13.9-57.92a2.28,2.28,0,0,0,0-1.16A6.36,6.36,0,0,0,188.66,371.43Z"/><polygon class="cls-4" points="173.81 453.76 174.2 455.31 173.94 455.49 173.3 453.67 173.81 453.76"/><polygon class="cls-6" points="177.57 448 177.98 446.73 178.91 446.53 178.04 448.42 177.57 448"/></g></g><g id="Hals"><path class="cls-8" d="M210.69,305.49l.92,18.47.39,3.92s9.83,2.4,14.26-6.07c1-1.95.19-7.32,0-10.17-.23-5.08,0-10.85,0-10.85Z"/><path class="cls-9" d="M226.2,306.19s-3.21,7.35-15.31,7.48c-.15-3-.2-5.05-.2-5.05Z"/></g><g id="Kopf"><path class="cls-5" d="M237,292.26c-1.83,6.75-7.47,6.81-7.65,6.81a17.84,17.84,0,0,1-1.5,5.31c-2.45,2.77-10.77,7.9-18.47,8.47a5.79,5.79,0,0,1-5.07-2.37,37.75,37.75,0,0,1-5-10.5c-.25-.79-.47-1.53-.67-2.23-.5-1.76-.81-3.17-1-3.91a4.35,4.35,0,0,1-.08-1.14l.12-1.86,0-.26.53-8.45s12.16-3.42,17.56-7.71c4.74,14.68,11.73,14.7,11.77,14.7s.08-.48,2.83-2.75S238.88,285.39,237,292.26Z"/><path class="cls-10" d="M203.75,295.22a4.78,4.78,0,0,1-4.37,4.76c-.25-.79-.47-1.53-.67-2.23-.5-1.76-.81-3.17-1-3.91a4.35,4.35,0,0,1-.08-1.14l.12-1.86,0-.26a5,5,0,0,1,1.17-.14A4.78,4.78,0,0,1,203.75,295.22Z"/><path class="cls-11" d="M207.41,289.79l-1.51,7.3a7.08,7.08,0,0,0,2.6.51"/><circle class="cls-12" cx="202.81" cy="288.52" r="1.61"/><circle class="cls-13" cx="202.52" cy="288" r="0.41"/><circle class="cls-12" cx="213.83" cy="288.52" r="1.61"/><circle class="cls-13" cx="213.28" cy="288" r="0.41"/><path class="cls-14" d="M231.5,289.17c1.65-.35,4.79,3.18.85,6.41"/><circle class="cls-10" cx="218.46" cy="294.6" r="5.4"/><circle class="cls-15" cx="216.76" cy="292.36" r="0.47"/><circle class="cls-15" cx="214.22" cy="294.6" r="0.47"/><circle class="cls-15" cx="211.54" cy="292.84" r="0.47"/><circle class="cls-15" cx="209.68" cy="294.6" r="0.47"/><circle class="cls-15" cx="204.42" cy="292.17" r="0.47"/><circle class="cls-15" cx="202.93" cy="294.85" r="0.47"/><circle class="cls-15" cx="201.2" cy="292.84" r="0.47"/><circle class="cls-15" cx="199.91" cy="294.38" r="0.47"/></g><g id="Mund"><path class="cls-7" d="M204.71,301.72c.88,0,1.64,0,2.38,0a20.84,20.84,0,0,0,2.12-.12c.69-.08,1.4-.14,2.12-.29s1.48-.29,2.38-.37c-.43.77-1.06,2.39-1.81,2.84a6,6,0,0,1-2.49.81,5.76,5.76,0,0,1-2.61-.33C206,304,205.21,302.48,204.71,301.72Z"/></g><g id="Augenbrauen"><path class="cls-16" d="M210.92,284.52a5.92,5.92,0,0,1,3.18-.9,4.16,4.16,0,0,1,3.13,1.84"/><path class="cls-16" d="M199.2,286.06a6,6,0,0,1,2.76-1.82,4.19,4.19,0,0,1,3.54.8"/></g><g id="r._Bein" data-name="r. Bein"><polygon class="cls-5" points="192.58 465.1 206.2 585.35 217.49 585.35 217.49 465.1 192.58 465.1"/><path class="cls-17" d="M220.22,572h-20.1v11s-19.76,1.91-23.61,8.44a23.22,23.22,0,0,0-.84,5.36h49.07Z"/></g><g id="Herz"><path class="cls-18" d="M272,280c-10.64-9.22-18.06,8.83-1,15C286.66,290,284.36,273.78,272,280Z"/></g><g id="l._Bein" data-name="l. Bein"><polygon class="cls-5" points="216.11 463.64 243.88 585.13 252.66 584.3 241.18 455.91 216.11 463.64"/><path class="cls-19" d="M257.8,569.27l-20,1.9,1,10.93s-19.49,3.77-22.71,10.63a23.67,23.67,0,0,0-.33,5.42l48.85-4.63Z"/></g><g id="Körper"><path class="cls-19" d="M211.38,319.67a44.65,44.65,0,0,0-13.73,22.57c-.45,1.83-1.59,10.28-2.19,14.95-4.15,32.71-10.38,119.49-10.38,119.49s28.7,11.39,74.71,0c-5.47-22.32-25.51-123.45-25.06-156.25-.17-.11-.35-.22-.54-.32a15.45,15.45,0,0,0-8.91-1.74Z"/></g><g id="Geld"><ellipse class="cls-20" cx="61.27" cy="435.92" rx="7.4" ry="5.76"/><ellipse class="cls-20" cx="34.4" cy="443.59" rx="7.4" ry="5.76"/><ellipse class="cls-21" cx="83.02" cy="429.52" rx="7.4" ry="5.76"/><polygon class="cls-22" points="126.53 407.13 164.91 395.61 174.51 409.69 135.48 419.92 126.53 407.13"/><polygon class="cls-23" points="129.09 404.57 167.47 393.05 177.07 407.13 138.04 417.36 129.09 404.57"/><polygon class="cls-24" points="131 401.37 169.39 389.85 178.99 403.93 139.96 414.17 131 401.37"/><polygon class="cls-25" points="132.92 397.53 171.31 386.02 180.91 400.09 141.88 410.33 132.92 397.53"/><ellipse class="cls-26" cx="157.23" cy="398.17" rx="7.4" ry="5.76"/><ellipse class="cls-27" cx="104.78" cy="423.76" rx="7.4" ry="5.76"/><text class="cls-28" transform="translate(154.02 403.89) rotate(-20.29)">€</text></g></svg>