<svg xmlns="http://www.w3.org/2000/svg" viewBox="0 0 375 667"><defs><style>.cls-1{fill:#c45151;}.cls-2{fill:#bf9090;}.cls-3{fill:#c9a09f;}.cls-4{fill:#d8aeab;}.cls-5{fill:#ef736a;}.cls-6{fill:#e9bdb8;}.cls-7{fill:#db6461;}.cls-8{fill:#ddd3ce;}.cls-9{fill:#d1c7c3;}.cls-10{fill:#eae1dc;}.cls-11{fill:#89807c;}.cls-12{fill:#4dcb8b;}.cls-13{fill:#a09792;}.cls-14{fill:#e2b8b5;}.cls-15{fill:#d3a8a5;}.cls-16{fill:#edb2ae;}.cls-17,.cls-20,.cls-24{fill:none;stroke-linecap:round;}.cls-17{stroke:#281d23;stroke-linejoin:round;}.cls-18{fill:#281d23;}.cls-19{fill:#eaeaea;}.cls-20{stroke:#ce9b97;}.cls-20,.cls-24{stroke-miterlimit:10;}.cls-21{fill:#c6a7a7;}.cls-22{fill:#eacca7;}.cls-23{fill:#f9dab0;}.cls-24{stroke:#c45151;}.cls-25{fill:#284f43;}.cls-26{fill:#22463c;}.cls-27{fill:#2e5b4c;}.cls-28{fill:#3e705d;}.cls-29{fill:#31604f;}.cls-30{fill:#cea5a8;opacity:0.37;}.cls-31{fill:#593a26;}</style></defs><title>Slide 2</title><g id="Haare"><path class="cls-1" d="M208.85,252.73s-14.73-3.21-22.3,8c-6.49,9.6-1.34,29.47-1.34,29.47s.1,14.5,6.51,26.19S185,346.82,185,346.82L221.09,378l15.14-13.05S224,320.81,225.86,306.51s8.28-27.51,2.57-39.14S208.85,252.73,208.85,252.73Z"/></g><g id="r._Unterarm" data-name="r. Unterarm"><g id="l._Unterarm" data-name="l. Unterarm"><path class="cls-2" d="M112,248.14l12.08,8.43L122,259.09s-5.88-5.77-5.79-5.7-2.6-1.64-3.74-2.49a2,2,0,0,1-.59-2.45Z"/><path class="cls-3" d="M110.25,245.84l12.07,8.44-2.11,2.52s-5.87-5.77-5.78-5.7-2.68-1.7-3.83-2.56a1.84,1.84,0,0,1-.54-2.3Z"/><path class="cls-4" d="M110.33,244.2l12.07,8.43-2.11,2.52s-5.88-5.77-5.78-5.7-2.79-1.77-3.94-2.64a1.66,1.66,0,0,1-.5-2.08Z"/><polygon class="cls-5" points="111.42 245.53 110.21 244.47 110.33 244.18 111.89 245.31 111.42 245.53"/><path class="cls-6" d="M155.08,316.86a7.59,7.59,0,0,0,2.75-9.15c-2.32-5.84-28.54-44.08-29.1-45s-2.79-8-3.44-10.06a1.56,1.56,0,0,0-.63-.84l-5.88-3.93-6.32-3.5-1.25-.71-.24.9a1.48,1.48,0,0,0,.5,1.55l4.64,3.35,2.85,2.81.69,4.28-2.72-1.61-1.73-2.44a1.87,1.87,0,0,0-1.5-.79l-1,0,1.32,4.58,1.83,3.27,4.44,2.81,27.38,52.9a2.4,2.4,0,0,0,.76.88A6.34,6.34,0,0,0,155.08,316.86Z"/><polygon class="cls-5" points="112.45 244.88 111.13 243.96 111.21 243.66 112.89 244.61 112.45 244.88"/><polygon class="cls-7" points="113.37 251.7 113.89 252.93 113.32 253.69 112.74 251.68 113.37 251.7"/></g><polygon class="cls-8" points="76.86 269.45 78.92 286.03 83.24 277.5 126.81 239.26 76.86 269.45"/><polygon class="cls-9" points="78.92 286.03 126.81 239.26 83.41 273.78 78.92 286.03"/><polygon class="cls-10" points="126.81 239.26 76.86 269.45 62.37 262.02 126.81 239.26"/><polygon class="cls-11" points="87.27 266.43 87.45 267.86 107.47 253.64 107.39 253.29 87.27 266.43"/><polygon class="cls-11" points="87.67 268.71 87.86 270.13 109.32 253.54 109.24 253.19 87.67 268.71"/><polygon class="cls-10" points="83.41 273.78 102.01 281.63 126.81 239.26 83.41 273.78"/><path class="cls-12" d="M88.12,259.36q.12.08.12.15a.31.31,0,0,1,0,.2,1.2,1.2,0,0,1-.3.31,3.06,3.06,0,0,1-.49.35,4.08,4.08,0,0,1-.89.37,3.21,3.21,0,0,1-1,.1,3.27,3.27,0,0,1-1.06-.23,4.92,4.92,0,0,1-1.16-.63,4.08,4.08,0,0,1-.87-.76,1.11,1.11,0,0,1-.27-.64.66.66,0,0,1,.24-.5,2.07,2.07,0,0,1,.63-.4,5.1,5.1,0,0,1,.55-.19,3.68,3.68,0,0,1,.5-.1,2.09,2.09,0,0,1,.42,0,.58.58,0,0,1,.26.07.19.19,0,0,1,.11.11.13.13,0,0,1,0,.12,4.83,4.83,0,0,0-.63.05,2.64,2.64,0,0,0-.72.21,1.28,1.28,0,0,0-.46.31.53.53,0,0,0-.14.41,1,1,0,0,0,.25.49,3,3,0,0,0,.68.58,4.08,4.08,0,0,0,.91.49,3,3,0,0,0,.83.2,2.29,2.29,0,0,0,.75-.06,2.37,2.37,0,0,0,.66-.25,1.94,1.94,0,0,0,.38-.26.7.7,0,0,0,.21-.23l-1.25-.79-.94.48-.14-.05-.15-.07c-.08-.06-.13-.11-.14-.15s0-.09.08-.12l1.06-.51a.45.45,0,0,1,.27,0,.59.59,0,0,1,.29.1Z"/><path class="cls-12" d="M89.93,258.83l-.06.07a.36.36,0,0,1-.12.08.47.47,0,0,1-.48,0c-.83-.49-1.33-.81-2.26-1.37a.66.66,0,0,1-.19-.18.25.25,0,0,1,0-.19.93.93,0,0,1,.27-.33,2.33,2.33,0,0,1,.58-.35.9.9,0,0,1,.79-.09.39.39,0,0,1,.1.08l0,.08-.2.06-.22.09a2.14,2.14,0,0,0-.47.29.87.87,0,0,0-.23.26C88.5,258,89.06,258.33,89.93,258.83Z"/><path class="cls-12" d="M93.13,255.6a2,2,0,0,1,.5.38.56.56,0,0,1,0,.79,1.92,1.92,0,0,1-.5.38,2.87,2.87,0,0,1-.68.28,2.59,2.59,0,0,1-.74.09,2.54,2.54,0,0,1-.76-.11,2.81,2.81,0,0,1-.74-.32,2,2,0,0,1-.55-.43.73.73,0,0,1-.2-.43.62.62,0,0,1,.17-.4,1.87,1.87,0,0,1,.52-.34,3.62,3.62,0,0,1,.73-.22,3.42,3.42,0,0,1,.78-.06,4.19,4.19,0,0,1,.78.11A3.7,3.7,0,0,1,93.13,255.6Zm-2.6.12c-.3.14-.44.3-.41.5s.23.4.59.61a2.39,2.39,0,0,0,1.07.34,1.71,1.71,0,0,0,1-.22c.29-.16.43-.33.41-.52s-.2-.37-.55-.56a2.56,2.56,0,0,0-1.06-.32A2,2,0,0,0,90.53,255.72Z"/><path class="cls-12" d="M94.34,254a1.18,1.18,0,0,0-.36.23.36.36,0,0,0-.14.26.42.42,0,0,0,.1.28,1.14,1.14,0,0,0,.37.27,2,2,0,0,0,1,.26,2.09,2.09,0,0,0,1-.27,1.82,1.82,0,0,0,.39-.27,1.49,1.49,0,0,0,.18-.24l.19,0a.34.34,0,0,1,.16,0,.1.1,0,0,1,.07.1.38.38,0,0,1-.09.16,2.3,2.3,0,0,1-.22.2l-.34.22a3.66,3.66,0,0,1-.68.29,3.06,3.06,0,0,1-.72.14,2.64,2.64,0,0,1-.74-.05,2.55,2.55,0,0,1-.75-.28,1.34,1.34,0,0,1-.5-.4.48.48,0,0,1-.11-.4.68.68,0,0,1,.24-.37,2.35,2.35,0,0,1,.55-.33l.42-.16.4-.1a1.22,1.22,0,0,1,.32,0,.61.61,0,0,1,.22,0,.09.09,0,0,1,.06.08.14.14,0,0,1,0,.1,3.85,3.85,0,0,0-.47.08A2.15,2.15,0,0,0,94.34,254Z"/><path class="cls-12" d="M97.63,253.6a2.27,2.27,0,0,0,1.77-.25,1.9,1.9,0,0,0,.42-.3.93.93,0,0,0,.2-.25.64.64,0,0,1,.34,0s.06.06,0,.11a.43.43,0,0,1-.11.17l-.24.21-.37.23a4,4,0,0,1-1.47.48,2.51,2.51,0,0,1-1.4-.26,1.33,1.33,0,0,1-.43-.33.45.45,0,0,1-.1-.35.67.67,0,0,1,.24-.34,1.85,1.85,0,0,1,.53-.32,3.45,3.45,0,0,1,.64-.22,4.13,4.13,0,0,1,.66-.11,4,4,0,0,1,.61,0,1.71,1.71,0,0,1,.51.15c.07,0,.1.07.09.11s-.06.07-.13.12C98.7,252.91,98.34,253.14,97.63,253.6Zm-.26-1c-.28.13-.44.27-.47.43s.09.31.37.46l1.63-1a1.66,1.66,0,0,0-.72-.09A2.19,2.19,0,0,0,97.37,252.56Z"/><path class="cls-12" d="M102,252.19a.22.22,0,0,1-.07.06.57.57,0,0,1-.13.08c-.18.1-.33.13-.43.07l-1.59-.77a.19.19,0,0,1-.12-.11.23.23,0,0,1,.08-.14,1.43,1.43,0,0,1,.35-.29,4.38,4.38,0,0,1,.63-.34c.37-.16.61-.22.73-.16a.15.15,0,0,1,.06,0,.13.13,0,0,1,0,.06l-.2.07-.22.1a5.56,5.56,0,0,0-.51.27,2.22,2.22,0,0,0-.3.24C101,251.69,101.35,251.87,102,252.19Z"/><path class="cls-12" d="M101.31,250s-.07-.07,0-.11a.4.4,0,0,1,.21-.14,1,1,0,0,1,.32-.09.44.44,0,0,1,.24,0s.07.06,0,.1-.09.1-.2.15a1.25,1.25,0,0,1-.32.08A.48.48,0,0,1,101.31,250Zm3.14.89-.08.06-.13.08a.46.46,0,0,1-.42.07c-.7-.35-1.09-.52-1.81-.85l.09-.06.14-.07a.53.53,0,0,1,.44-.06C103.39,250.36,103.77,250.53,104.45,250.87Z"/><path class="cls-12" d="M105.1,249.81a2.36,2.36,0,0,0,1.59-.33,2.92,2.92,0,0,0,.43-.28,1.82,1.82,0,0,0,.24-.23.4.4,0,0,1,.28,0s0,.05,0,.09a.57.57,0,0,1-.13.16l-.26.2-.37.21a4.34,4.34,0,0,1-1.39.5,2,2,0,0,1-1.15-.12.55.55,0,0,1-.3-.24.31.31,0,0,1,0-.28,1,1,0,0,1,.3-.31,3.4,3.4,0,0,1,.55-.3,4.67,4.67,0,0,1,.62-.24,5.32,5.32,0,0,1,.59-.13,2.37,2.37,0,0,1,.52,0,.87.87,0,0,1,.39.08s.07.05,0,.08a.35.35,0,0,1-.14.11C106.2,249.15,105.83,249.37,105.1,249.81Zm.05-.84a1.16,1.16,0,0,0-.52.39c-.07.13,0,.25.19.35l1.67-1a1.33,1.33,0,0,0-.58,0A2.87,2.87,0,0,0,105.15,249Z"/><path class="cls-12" d="M110.39,247.32c.13.06.13.17,0,.31a2.33,2.33,0,0,1-.73.51,3.81,3.81,0,0,1-.46.22l-.39.15a1.56,1.56,0,0,1-.3.07.29.29,0,0,1-.17,0,.05.05,0,0,1,0-.06.14.14,0,0,1,.06-.09l.52-.15a3.77,3.77,0,0,0,.56-.24c.44-.23.58-.38.44-.46a1,1,0,0,0-.67.12l-.6.23a4.26,4.26,0,0,1-.73.22,1,1,0,0,1-.45,0,.17.17,0,0,1-.1-.11.26.26,0,0,1,.08-.17,1.54,1.54,0,0,1,.28-.21,3.44,3.44,0,0,1,.48-.25,5.65,5.65,0,0,1,.82-.32c.23-.07.38-.1.43-.07s0,0,0,.05,0,.05-.07.08a3.19,3.19,0,0,0-.41.12,5.85,5.85,0,0,0-.56.22,2.74,2.74,0,0,0-.43.25c-.08.07-.08.13,0,.16a.54.54,0,0,0,.23,0,2.23,2.23,0,0,0,.4-.13l.51-.19a4.34,4.34,0,0,1,.81-.26A.73.73,0,0,1,110.39,247.32Z"/><polygon class="cls-11" points="86.87 263.94 87.06 265.37 117.82 245.28 117.88 244.96 86.87 263.94"/><polygon class="cls-13" points="88.93 270.43 110.37 253.15 110.89 253.34 90.75 271.09 88.93 270.43"/><polygon class="cls-13" points="111.05 252.53 111.53 252.74 112.69 251.68 112.36 251.49 111.05 252.53"/><path class="cls-6" d="M119.65,256.55l-2.72-1.61-1.73-2.44a1.87,1.87,0,0,0-1.5-.79l-1,0,1.32,4.58,1.83,3.27,4.44,2.81,27.38,52.9a2.4,2.4,0,0,0,.76.88,6.34,6.34,0,0,0,6.61.74,7.59,7.59,0,0,0,2.75-9.15c-2.32-5.84-28.54-44.08-29.1-45"/><polygon class="cls-7" points="113.37 251.7 113.89 252.93 113.32 253.69 112.74 251.68 113.37 251.7"/></g><g id="r._Oberarm" data-name="r. Oberarm"><path id="r._Oberarm-2" data-name="r. Oberarm" class="cls-6" d="M212.85,329.49s-4.5-13.65-16.57-16.67S153.59,305,153.59,305s-7.33.67-7.59,5.66,5.88,6.94,5.88,6.94l27,6a27.24,27.24,0,0,1,18,13.53l3,5.43Z"/></g><g id="l._Arm" data-name="l. Arm"><path class="cls-6" d="M220.39,311.81a37,37,0,0,1,20.94,23.11c5.55,17.66,12.36,38.85,12.36,38.85l-3.89,44.65h-8.22l-.33-42.84-18.82-37.11A30.59,30.59,0,0,1,220.39,311.81Z"/></g><g id="Hals"><path class="cls-14" d="M198.9,298.07l.93,18.47.38,3.93s9.83,2.39,14.27-6.08c1-1.95.19-7.31,0-10.16-.23-5.08,0-10.86,0-10.86Z"/><path class="cls-15" d="M214.41,298.77s-3.21,7.35-15.31,7.48c-.15-2.95-.2-5.05-.2-5.05Z"/></g><g id="Kopf"><path class="cls-6" d="M225.23,284.84c-1.83,6.75-7.46,6.81-7.65,6.81a17.84,17.84,0,0,1-1.5,5.31c-2.44,2.78-10.76,7.9-18.47,8.47a5.79,5.79,0,0,1-5.07-2.37c-2.73-3.7-4.56-9-5.62-12.73-.49-1.75-.81-3.17-1-3.91a3.9,3.9,0,0,1-.09-1.13l.12-1.87.56-8.71s12.15-3.42,17.55-7.71c4.75,14.73,11.77,14.7,11.77,14.7s.08-.48,2.83-2.75S227.1,278,225.23,284.84Z"/><path class="cls-16" d="M191.35,286.71a3.7,3.7,0,0,1-3.7,3.69,3.61,3.61,0,0,1-.73-.07c-.49-1.75-.81-3.17-1-3.91a3.9,3.9,0,0,1-.09-1.13l.12-1.87a3.57,3.57,0,0,1,1.66-.4A3.7,3.7,0,0,1,191.35,286.71Z"/><path class="cls-17" d="M195.63,282.37l-1.51,7.3a6.77,6.77,0,0,0,2.6.51"/><circle class="cls-18" cx="191.02" cy="281.1" r="1.61"/><circle class="cls-19" cx="190.73" cy="280.58" r="0.41"/><circle class="cls-18" cx="202.04" cy="281.1" r="1.61"/><circle class="cls-19" cx="201.49" cy="280.58" r="0.41"/><path class="cls-20" d="M219.72,281.75c1.65-.34,4.78,3.18.85,6.41"/><circle class="cls-16" cx="205.45" cy="286.96" r="4.17"/><circle class="cls-21" cx="204.98" cy="284.95" r="0.47"/><circle class="cls-21" cx="202.44" cy="287.18" r="0.47"/><circle class="cls-21" cx="199.75" cy="285.42" r="0.47"/><circle class="cls-21" cx="197.9" cy="287.18" r="0.47"/><circle class="cls-21" cx="192.63" cy="284.75" r="0.47"/><circle class="cls-21" cx="191.14" cy="287.43" r="0.47"/><circle class="cls-21" cx="189.42" cy="285.42" r="0.47"/><circle class="cls-21" cx="188.12" cy="286.96" r="0.47"/></g><g id="r._Bein" data-name="r. Bein"><polygon class="cls-6" points="180.79 457.69 194.42 577.93 205.7 577.93 205.7 457.69 180.79 457.69"/><path class="cls-22" d="M208.43,564.6H188.34v11s-19.76,1.91-23.62,8.45a23.44,23.44,0,0,0-.83,5.35H213Z"/></g><g id="l._Bein" data-name="l. Bein"><polygon class="cls-6" points="204.33 456.23 232.09 577.72 240.88 576.88 229.4 448.49 204.33 456.23"/><path class="cls-23" d="M246,561.85l-20,1.9,1,10.93s-19.49,3.77-22.7,10.64a22.9,22.9,0,0,0-.33,5.41l48.84-4.63Z"/></g><g id="Körper"><path class="cls-23" d="M199.59,312.25a44.68,44.68,0,0,0-13.72,22.58c-.46,1.82-1.6,10.27-2.19,14.95-4.15,32.7-10.38,119.48-10.38,119.48s28.69,11.39,74.7,0C242.54,446.94,222.49,345.81,223,313c-.17-.11-.36-.21-.55-.32a15.42,15.42,0,0,0-8.9-1.74Z"/></g><g id="Mund"><path class="cls-1" d="M192.92,294.3c.89,0,1.64,0,2.38,0s1.43,0,2.13-.12,1.39-.15,2.12-.3,1.48-.29,2.38-.37a6.77,6.77,0,0,1-1.82,2.4,5.92,5.92,0,0,1-2.49.82,5.76,5.76,0,0,1-2.61-.33A5.6,5.6,0,0,1,192.92,294.3Z"/></g><g id="Augenbrauen"><path class="cls-24" d="M199.13,278.1a6,6,0,0,1,3.18-.9,4.23,4.23,0,0,1,3.14,1.84"/><path class="cls-24" d="M187.41,279.65a5.91,5.91,0,0,1,2.76-1.82,4.17,4.17,0,0,1,3.55.79"/></g><g id="Hand_u_Korb" data-name="Hand u Korb"><path class="cls-25" d="M196.71,451.79s-2.6,13,26,27.3c36.39-7.8,68.89-23.4,68.89-23.4s-5.2-11.7-22.1-27.3C234.41,436.19,198,449.19,196.71,451.79Z"/><path class="cls-26" d="M197.36,484.94s2.6,7.8,25.35,21.45c36.39-7.8,68.89-23.4,68.89-23.4s-7.8-11.7-24.7-27.3C231.81,463.49,198.66,482.34,197.36,484.94Z"/><path class="cls-27" d="M269.5,428.39s1.3,11.7-2.6,27.3c2.6,2.6,19.5,18.2,24.7,27.3a81.47,81.47,0,0,0,0-27.3S278.6,434.89,269.5,428.39Z"/><path class="cls-6" d="M241.6,418.33V429l6.85,6.83a.39.39,0,0,1-.06.61l-.9.58a.57.57,0,0,1-.64,0l-4.92-3.23-.67,2.82,5.82,6a2.76,2.76,0,0,0,3.68.28l6.54-6.45c.66-.5.53-2.55.09-3.25l-3.59-5.65-.63-.9a20.31,20.31,0,0,1-3.26-7.84l-.1-.51Z"/><path class="cls-28" d="M196.71,451.79s-2.6,18.2,0,32.5c3.9,9.1,14.3,14.3,26,22.1-1.3-11.7,0-28.6,0-28.6S203.21,470,196.71,451.79Z"/><path class="cls-29" d="M291.6,455.69s-36.4,18.2-68.89,22.1a175,175,0,0,0,0,28.6S266.9,496,291.6,483C292.9,470,292.9,464.79,291.6,455.69Z"/><path class="cls-30" d="M245.67,433.06l1.18-2.57,3.47,3.41.19,3.69-2,.9-1.59-1.42a.76.76,0,0,0,.29,0,.46.46,0,0,0,.27-.09l1-.63C248.91,435.83,248.1,435.66,245.67,433.06Z"/><path class="cls-30" d="M246.85,437s-1.5-.6-1.47.12a4.07,4.07,0,0,0,.07.71,9.14,9.14,0,0,1,.58,2.5,3,3,0,0,1-.24,1l-1.27-1.47-.37-4.59Z"/><path class="cls-31" d="M236.36,436.84s8.83-8,18.19,0c9.1,7.8,10.34,31.49,10.34,31.49-.57,1.8-1.8,2.19-3.64,1.23,0,0-5.4-26.22-14.5-31.42-12.86-7.35-19.68,1.69-19.68,1.69C231.16,440.74,235.06,438.14,236.36,436.84Z"/><path class="cls-31" d="M232.28,436.1l9.37-2.17-1,1.09A31,31,0,0,1,232.28,436.1Z"/><path class="cls-6" d="M241.6,429l-.72,5.17a4.26,4.26,0,0,0,.39,2.46l1.65,3.35a2.55,2.55,0,0,1,.27.94l.12,1.34.79-.19a1.74,1.74,0,0,0,1.26-1.16h0a1,1,0,0,0,0-.56l-.86-4.6,1.15-2.69Z"/><polygon class="cls-7" points="243.13 440.58 243.66 440.77 243.79 442.15 243.31 442.26 243.13 440.58"/></g></svg>