<svg xmlns="http://www.w3.org/2000/svg" xmlns:xlink="http://www.w3.org/1999/xlink" viewBox="0 0 375 667"><defs><style>.cls-1{fill:#ddd3ce;}.cls-2{fill:#d1c7c3;}.cls-3{fill:#eae1dc;}.cls-4{fill:#89807c;}.cls-5{fill:#4dcb8b;}.cls-6{fill:#a09792;}.cls-7,.cls-8,.cls-9{fill:#998e88;}.cls-8{opacity:0.1;}.cls-9{opacity:0.26;}.cls-10{fill:#e0b98c;}.cls-11{fill:#f9dab0;}.cls-12{fill:url(#Unbenannter_Verlauf_21);}.cls-13{fill:#fffdf3;}.cls-14{fill:#4d776a;}.cls-15{fill:#edcca6;}.cls-16{fill:#ffe1ca;}.cls-17{fill:#e3eeff;}</style><linearGradient id="Unbenannter_Verlauf_21" x1="182" y1="488.1" x2="184.69" y2="489.46" gradientUnits="userSpaceOnUse"><stop offset="0.27" stop-color="#cab8b3"/><stop offset="0.34" stop-color="#b5a6a1"/><stop offset="0.41" stop-color="#a49793"/><stop offset="0.51" stop-color="#998d88"/><stop offset="0.64" stop-color="#928783"/><stop offset="1" stop-color="#908581"/></linearGradient></defs><title>Slide 1</title><g id="Flieger"><polygon class="cls-1" points="191.93 300.44 189.86 345.26 205.17 324.65 337.8 243.09 191.93 300.44"/><polygon class="cls-2" points="189.86 345.26 337.8 243.09 207.3 314.85 189.86 345.26"/><polygon class="cls-3" points="337.8 243.09 191.93 300.44 156.9 274.22 337.8 243.09"/><polygon class="cls-4" points="220.84 297.16 220.68 301.02 280.1 272.42 280.06 271.47 220.84 297.16"/><polygon class="cls-4" points="220.87 303.36 220.72 307.22 285.04 273 284.99 272.05 220.87 303.36"/><polygon class="cls-3" points="207.3 314.85 252.98 344.07 337.8 243.09 207.3 314.85"/><path class="cls-5" d="M226.28,278.83a.58.58,0,0,1,.26.45.84.84,0,0,1-.23.49,3.62,3.62,0,0,1-.93.7,8.11,8.11,0,0,1-1.45.69,10.17,10.17,0,0,1-2.54.58,8.33,8.33,0,0,1-2.62-.17,9.48,9.48,0,0,1-2.72-1.1,14.71,14.71,0,0,1-2.78-2.18,10.39,10.39,0,0,1-2-2.42,2.94,2.94,0,0,1-.44-1.81,1.83,1.83,0,0,1,.86-1.22,5.43,5.43,0,0,1,1.86-.76,11.65,11.65,0,0,1,1.53-.26,11,11,0,0,1,1.38,0,6.56,6.56,0,0,1,1.11.14,1.6,1.6,0,0,1,.68.3.55.55,0,0,1,.22.35.4.4,0,0,1-.12.29,14.34,14.34,0,0,0-1.7-.15,7.13,7.13,0,0,0-2,.23,3.4,3.4,0,0,0-1.38.62,1.42,1.42,0,0,0-.54,1,2.59,2.59,0,0,0,.44,1.43,9.13,9.13,0,0,0,1.53,1.84,12.05,12.05,0,0,0,2.2,1.71,8,8,0,0,0,2.11.89,6.65,6.65,0,0,0,2,.19,6.75,6.75,0,0,0,1.86-.37,6.16,6.16,0,0,0,1.12-.51,2.79,2.79,0,0,0,.67-.51c-1.13-1-1.74-1.56-3-2.67l-2.72.84-.34-.17a1.93,1.93,0,0,1-.36-.28.79.79,0,0,1-.3-.45c0-.13.07-.22.25-.28l3-.89a1.47,1.47,0,0,1,.75,0,1.73,1.73,0,0,1,.73.39C224.25,277,225,277.68,226.28,278.83Z"/><path class="cls-5" d="M231.33,278.24a2,2,0,0,1-.21.15,2,2,0,0,1-.36.17,1.2,1.2,0,0,1-1.28-.16c-2-1.65-3.15-2.73-5.34-4.65a1.24,1.24,0,0,1-.43-.55.66.66,0,0,1,.11-.51,2.4,2.4,0,0,1,.85-.75,6.64,6.64,0,0,1,1.7-.65,2.44,2.44,0,0,1,2.13.11,1,1,0,0,1,.22.26.35.35,0,0,1,.08.22l-.55.08-.63.14a5.56,5.56,0,0,0-1.37.54,2.42,2.42,0,0,0-.72.61C227.93,275.32,229.24,276.51,231.33,278.24Z"/><path class="cls-5" d="M241.25,271.14a4.37,4.37,0,0,1,1.14,1.23,1.63,1.63,0,0,1,.23,1.12,1.79,1.79,0,0,1-.66,1,5.27,5.27,0,0,1-1.49.78,8,8,0,0,1-1.93.42,7.4,7.4,0,0,1-2-.08,8,8,0,0,1-2-.63,9.1,9.1,0,0,1-1.83-1.19,5.45,5.45,0,0,1-1.26-1.41,1.92,1.92,0,0,1-.32-1.22,1.5,1.5,0,0,1,.63-1,4.56,4.56,0,0,1,1.53-.66,8.49,8.49,0,0,1,2-.27,9.74,9.74,0,0,1,2.09.2,10.13,10.13,0,0,1,2,.64A8.28,8.28,0,0,1,241.25,271.14Zm-6.93-.87c-.87.23-1.31.6-1.32,1.13s.42,1.17,1.28,1.88a6.32,6.32,0,0,0,2.68,1.38,4.75,4.75,0,0,0,2.62-.13c.84-.29,1.28-.69,1.31-1.19s-.36-1.08-1.18-1.73a6.94,6.94,0,0,0-2.67-1.34A5.44,5.44,0,0,0,234.32,270.27Z"/><path class="cls-5" d="M245.19,267.35a3.51,3.51,0,0,0-1.06.45,1,1,0,0,0-.49.63,1.06,1.06,0,0,0,.15.78,3.32,3.32,0,0,0,.85.9,5.53,5.53,0,0,0,2.61,1.14A5.83,5.83,0,0,0,250,271a4.25,4.25,0,0,0,1.15-.55,3.2,3.2,0,0,0,.59-.56,2.18,2.18,0,0,1,.52,0,1,1,0,0,1,.41.16.27.27,0,0,1,.11.31.82.82,0,0,1-.3.38,4.12,4.12,0,0,1-.67.43,8,8,0,0,1-1,.41,10.79,10.79,0,0,1-1.94.48,8.14,8.14,0,0,1-2,0,7,7,0,0,1-1.94-.47,7.34,7.34,0,0,1-1.84-1.07,3.8,3.8,0,0,1-1.16-1.29,1.43,1.43,0,0,1-.11-1.11,1.78,1.78,0,0,1,.82-.87,6.06,6.06,0,0,1,1.59-.62q.62-.15,1.2-.24a8.63,8.63,0,0,1,1.09-.07,5.39,5.39,0,0,1,.87.06,1.27,1.27,0,0,1,.54.2q.17.12.15.24a.37.37,0,0,1-.16.24c-.42,0-.85,0-1.28,0A7.24,7.24,0,0,0,245.19,267.35Z"/><path class="cls-5" d="M254.06,267.86a6.13,6.13,0,0,0,4.81.14,5.13,5.13,0,0,0,1.24-.59,3.12,3.12,0,0,0,.66-.58,1.35,1.35,0,0,1,.88.17.21.21,0,0,1,.07.29,1.11,1.11,0,0,1-.37.4,4.36,4.36,0,0,1-.74.45,8.32,8.32,0,0,1-1.06.43,10.4,10.4,0,0,1-4.12.62,6.64,6.64,0,0,1-3.58-1.33,3.44,3.44,0,0,1-1-1.07,1.2,1.2,0,0,1-.09-1,1.79,1.79,0,0,1,.78-.8,6.11,6.11,0,0,1,1.54-.6,11,11,0,0,1,1.82-.29,10.65,10.65,0,0,1,1.79,0,8.06,8.06,0,0,1,1.61.32,4.48,4.48,0,0,1,1.28.62c.18.12.24.23.19.32a.76.76,0,0,1-.4.26C257.22,266.54,256.16,267,254.06,267.86Zm-.22-2.86c-.79.22-1.27.52-1.42.92s.1.87.75,1.38c1.9-.77,2.85-1.15,4.77-1.9a4.75,4.75,0,0,0-1.84-.58A6.07,6.07,0,0,0,253.84,265Z"/><path class="cls-5" d="M266.25,266.11a1.86,1.86,0,0,1-.23.13,3.4,3.4,0,0,1-.37.16,1.28,1.28,0,0,1-1.18,0c-1.46-1.07-2.28-1.65-3.85-2.75-.18-.12-.26-.24-.25-.34s.09-.22.25-.36a4.26,4.26,0,0,1,1.05-.59,12.36,12.36,0,0,1,1.84-.61c1.05-.27,1.72-.31,2-.12a.39.39,0,0,1,.14.15.2.2,0,0,1,0,.15l-.55.11c-.22,0-.44.1-.65.15a10.35,10.35,0,0,0-1.47.5,4.82,4.82,0,0,0-.88.48C263.79,264.34,264.69,265,266.25,266.11Z"/><path class="cls-5" d="M265.46,260c-.14-.1-.16-.2-.06-.32a1.33,1.33,0,0,1,.62-.28,3,3,0,0,1,.88-.08,1.31,1.31,0,0,1,.62.17c.13.1.15.2.06.31a1.1,1.1,0,0,1-.59.29,3,3,0,0,1-.89.08A1.37,1.37,0,0,1,265.46,260Zm7.89,3.77-.23.13-.38.15a1.23,1.23,0,0,1-1.14,0c-1.7-1.24-2.65-1.87-4.41-3.08l.26-.11a3.31,3.31,0,0,1,.41-.13,1.48,1.48,0,0,1,1.2,0C270.79,261.9,271.71,262.5,273.35,263.72Z"/><path class="cls-5" d="M275.55,261.2a6.38,6.38,0,0,0,4.37-.15,7.44,7.44,0,0,0,1.27-.54,4.8,4.8,0,0,0,.73-.51,1.15,1.15,0,0,1,.76.09c.08.06.08.15,0,.25a1.6,1.6,0,0,1-.42.35,6.61,6.61,0,0,1-.77.41,10.51,10.51,0,0,1-1.07.41,11.93,11.93,0,0,1-3.91.68,5.26,5.26,0,0,1-3-.85,1.61,1.61,0,0,1-.68-.76.81.81,0,0,1,.16-.75,2.79,2.79,0,0,1,.93-.67,9.23,9.23,0,0,1,1.58-.56,13.78,13.78,0,0,1,1.75-.33,11.83,11.83,0,0,1,1.64-.09,7.11,7.11,0,0,1,1.38.15,2.62,2.62,0,0,1,1,.39c.12.08.15.16.08.23a1.09,1.09,0,0,1-.43.23C278.76,260,277.69,260.38,275.55,261.2Zm.52-2.19a2.87,2.87,0,0,0-1.55.8c-.25.32-.13.66.34,1,1.94-.71,2.91-1.07,4.86-1.77a3.75,3.75,0,0,0-1.53-.32A7.24,7.24,0,0,0,276.07,259Z"/><path class="cls-5" d="M290.7,257q.45.35-.12.84a7,7,0,0,1-2.17,1c-.45.15-.89.28-1.31.38s-.79.17-1.11.21a7,7,0,0,1-.83.06.87.87,0,0,1-.45-.1.16.16,0,0,1-.06-.18.49.49,0,0,1,.2-.23,13.41,13.41,0,0,0,1.43-.15,10.43,10.43,0,0,0,1.61-.39c1.25-.4,1.7-.75,1.35-1s-.88-.21-1.82,0l-1.7.35a9.74,9.74,0,0,1-2,.24,2.19,2.19,0,0,1-1.17-.28.38.38,0,0,1-.2-.33c0-.13.09-.26.28-.41a3.73,3.73,0,0,1,.82-.44,11.45,11.45,0,0,1,1.39-.45,17.63,17.63,0,0,1,2.32-.47,2.37,2.37,0,0,1,1.17,0c.06.05.08.1,0,.15a.46.46,0,0,1-.22.17c-.28,0-.67.07-1.15.14a12.35,12.35,0,0,0-1.59.34,5.08,5.08,0,0,0-1.23.46c-.25.16-.29.29-.13.4a1,1,0,0,0,.59.13,5.69,5.69,0,0,0,1.13-.14l1.42-.3a12.92,12.92,0,0,1,2.26-.3A2.06,2.06,0,0,1,290.7,257Z"/><polygon class="cls-4" points="220.91 290.39 220.76 294.25 311.28 254.96 311.59 254.14 220.91 290.39"/><polygon class="cls-6" points="223.42 308.48 288 272.43 289.27 273.18 227.96 311.06 223.42 308.48"/><polygon class="cls-6" points="290.08 271.11 291.25 271.87 294.8 269.6 294.02 268.95 290.08 271.11"/></g><g id="Einkaufszettel"><path class="cls-3" d="M236.27,502.53q-48,20-95.27,41.72c-31-39.58-62.39-78.85-93-118.71,35.62-10.87,71.63-20.31,107.37-30.74C180,432.53,209.47,466.41,236.27,502.53Z"/><path class="cls-5" d="M94.84,436.08a.7.7,0,0,1,.18.47.89.89,0,0,1-.19.47,2.92,2.92,0,0,1-.76.63,5.13,5.13,0,0,1-1.18.55,6.65,6.65,0,0,1-4.2,0,7.53,7.53,0,0,1-2.08-1.08,9.86,9.86,0,0,1-1.93-1.9,7.06,7.06,0,0,1-1.21-2.14,3.27,3.27,0,0,1-.13-1.75,2.54,2.54,0,0,1,.8-1.31,4,4,0,0,1,1.52-.83,6,6,0,0,1,1.22-.25A4.9,4.9,0,0,1,88,429a3.25,3.25,0,0,1,.85.18,1.14,1.14,0,0,1,.51.34.53.53,0,0,1,.15.38.44.44,0,0,1-.11.3,9.2,9.2,0,0,0-1.3-.19,4.29,4.29,0,0,0-1.56.22,2.87,2.87,0,0,0-1.14.65,1.82,1.82,0,0,0-.54,1,2.79,2.79,0,0,0,.17,1.35,5.94,5.94,0,0,0,1,1.63,8,8,0,0,0,1.51,1.51,5.9,5.9,0,0,0,1.59.86,4.9,4.9,0,0,0,1.58.27,4.73,4.73,0,0,0,1.51-.24,5.64,5.64,0,0,0,.92-.41,2.09,2.09,0,0,0,.55-.45l-2-2.61-2.19.71-.24-.17a1.14,1.14,0,0,1-.24-.25.62.62,0,0,1-.18-.41c0-.12.08-.2.23-.25l2.42-.78a.91.91,0,0,1,.56,0,1.07,1.07,0,0,1,.52.37Z"/><path class="cls-5" d="M98.75,436a1.31,1.31,0,0,1-.16.14,1.22,1.22,0,0,1-.28.13.82.82,0,0,1-1-.31l-3.71-4.79a1.23,1.23,0,0,1-.28-.55.85.85,0,0,1,.12-.51,2.21,2.21,0,0,1,.67-.73,4,4,0,0,1,1.27-.61c.74-.24,1.25-.16,1.54.21a1.17,1.17,0,0,1,.16.28.79.79,0,0,1,0,.24l-.41.05a3.09,3.09,0,0,0-.46.12,3.41,3.41,0,0,0-1,.48,2.37,2.37,0,0,0-.57.58C96.3,432.84,97.12,433.89,98.75,436Z"/><path class="cls-5" d="M106.06,429.66a6.13,6.13,0,0,1,.85,1.47,2.81,2.81,0,0,1,.2,1.26,1.6,1.6,0,0,1-.43,1,2.4,2.4,0,0,1-1.07.65,3.85,3.85,0,0,1-1.44.17,4.79,4.79,0,0,1-1.49-.37,6,6,0,0,1-1.45-.88,7.94,7.94,0,0,1-1.31-1.34,5.81,5.81,0,0,1-.85-1.5,2.6,2.6,0,0,1-.19-1.28,1.72,1.72,0,0,1,.46-1,2.55,2.55,0,0,1,1.09-.63,3.85,3.85,0,0,1,1.44-.15,4.45,4.45,0,0,1,1.48.39,6.26,6.26,0,0,1,1.43.89A7.13,7.13,0,0,1,106.06,429.66Zm-4.93-1.54a1.17,1.17,0,0,0-1,1.11,3.34,3.34,0,0,0,.87,2,5.36,5.36,0,0,0,1.93,1.67,2.52,2.52,0,0,0,1.94.19,1.15,1.15,0,0,0,.93-1.11,3.47,3.47,0,0,0-.88-2,5.48,5.48,0,0,0-1.89-1.67A2.58,2.58,0,0,0,101.13,428.12Z"/><path class="cls-5" d="M108.73,425.79a1.74,1.74,0,0,0-.72.42,1.14,1.14,0,0,0-.32.68,2,2,0,0,0,.14.92,4.59,4.59,0,0,0,.63,1.11,5,5,0,0,0,1.93,1.64,2.78,2.78,0,0,0,2,.15,1.93,1.93,0,0,0,.8-.45,2.51,2.51,0,0,0,.38-.58,1.3,1.3,0,0,1,.39.14.91.91,0,0,1,.32.27.61.61,0,0,1,.12.4.88.88,0,0,1-.19.42,2,2,0,0,1-.45.39,2.76,2.76,0,0,1-.69.31,4,4,0,0,1-1.42.2,4.28,4.28,0,0,1-1.46-.3,5.8,5.8,0,0,1-1.45-.83,8.07,8.07,0,0,1-1.36-1.42,5.55,5.55,0,0,1-.85-1.56,2.52,2.52,0,0,1-.11-1.28,1.75,1.75,0,0,1,.52-1,2.82,2.82,0,0,1,1.08-.59,4.05,4.05,0,0,1,.83-.16,3.14,3.14,0,0,1,.76,0,2.22,2.22,0,0,1,.63.2,1,1,0,0,1,.4.31.53.53,0,0,1,.12.32.4.4,0,0,1-.1.26,5.67,5.67,0,0,0-.9-.16A2.68,2.68,0,0,0,108.73,425.79Z"/><path class="cls-5" d="M115.11,427.62a3.34,3.34,0,0,0,3.58,1.08,1.91,1.91,0,0,0,.86-.5,1.94,1.94,0,0,0,.42-.64,1.08,1.08,0,0,1,.69.42.53.53,0,0,1,.1.42.92.92,0,0,1-.22.46,2,2,0,0,1-.5.42,3,3,0,0,1-.74.34,4.48,4.48,0,0,1-3-.09,6.28,6.28,0,0,1-2.76-2.25,6.09,6.09,0,0,1-.81-1.47,2.77,2.77,0,0,1-.15-1.23,1.68,1.68,0,0,1,.47-.95,2.31,2.31,0,0,1,1-.59,3.6,3.6,0,0,1,1.27-.13,4.34,4.34,0,0,1,1.3.32,5.66,5.66,0,0,1,1.22.72,5.2,5.2,0,0,1,1,1.07.7.7,0,0,1,.18.47.45.45,0,0,1-.26.27Zm-.44-3.68a1.17,1.17,0,0,0-.92,1,2.77,2.77,0,0,0,.66,1.85l3.28-1.65a3.9,3.9,0,0,0-1.42-1.09A2.28,2.28,0,0,0,114.67,423.94Z"/><path class="cls-5" d="M124.09,427.85l-.16.12a1.26,1.26,0,0,1-.26.13.76.76,0,0,1-.93-.31l-3.33-4.62a1.12,1.12,0,0,1-.24-.54.83.83,0,0,1,.13-.48,2.27,2.27,0,0,1,.67-.7,4.15,4.15,0,0,1,1.25-.58c.73-.22,1.23-.15,1.48.21a.87.87,0,0,1,.14.27.47.47,0,0,1,0,.23l-.39.05a3.1,3.1,0,0,0-.46.11,3.28,3.28,0,0,0-1,.47,2.13,2.13,0,0,0-.57.54Z"/><path class="cls-5" d="M122.25,418.35a.65.65,0,0,1-.13-.55.49.49,0,0,1,.38-.35,1,1,0,0,1,.66,0,1.25,1.25,0,0,1,.53.43.69.69,0,0,1,.14.55.49.49,0,0,1-.38.35,1,1,0,0,1-.66,0A1.21,1.21,0,0,1,122.25,418.35Zm7.06,7.84-.16.12a1,1,0,0,1-.27.13.75.75,0,0,1-.94-.3c-1.65-2.31-2.47-3.47-4.11-5.81a.67.67,0,0,1,.17-.13,1.11,1.11,0,0,1,.29-.13.77.77,0,0,1,.94.33C126.86,422.73,127.68,423.88,129.31,426.19Z"/><path class="cls-5" d="M130.54,422.81a3.39,3.39,0,0,0,3.66,1,2.59,2.59,0,0,0,1-.53,2.64,2.64,0,0,0,.5-.65,1,1,0,0,1,.7.4.49.49,0,0,1,.07.41,1.17,1.17,0,0,1-.28.47,2.5,2.5,0,0,1-.57.44,3.67,3.67,0,0,1-.82.36,4.85,4.85,0,0,1-3.17,0,5.65,5.65,0,0,1-2.69-2.18,5.05,5.05,0,0,1-.73-1.45,2.57,2.57,0,0,1-.06-1.22,1.83,1.83,0,0,1,.56-.95,2.74,2.74,0,0,1,1.12-.61,3.74,3.74,0,0,1,1.34-.16,4.17,4.17,0,0,1,1.34.28,4.64,4.64,0,0,1,1.23.68,4.46,4.46,0,0,1,1,1,.58.58,0,0,1,.15.46.53.53,0,0,1-.3.29C132.9,421.65,132.11,422,130.54,422.81Zm-.16-3.66a1.38,1.38,0,0,0-1,1,2.48,2.48,0,0,0,.55,1.82l3.57-1.73a3.45,3.45,0,0,0-1.39-1A2.49,2.49,0,0,0,130.38,419.15Z"/><path class="cls-5" d="M142.75,420a1.38,1.38,0,0,1,.19,1.54,2.91,2.91,0,0,1-1.73,1.14,6.65,6.65,0,0,1-1.1.25,5.34,5.34,0,0,1-1,0,2.55,2.55,0,0,1-.74-.15.94.94,0,0,1-.44-.31.59.59,0,0,1-.11-.33.52.52,0,0,1,.11-.35,7,7,0,0,0,1.26.18,3.79,3.79,0,0,0,1.36-.19c1-.33,1.36-.81.94-1.42a1.74,1.74,0,0,0-1.73-.65l-1.45.1a3.9,3.9,0,0,1-1.75-.21,2.48,2.48,0,0,1-1.14-.92,1.88,1.88,0,0,1-.3-.72,1.17,1.17,0,0,1,.1-.71,1.64,1.64,0,0,1,.56-.63,3.38,3.38,0,0,1,1.06-.5,5.24,5.24,0,0,1,1.91-.26,1.41,1.41,0,0,1,1.09.43.53.53,0,0,1,.11.34.39.39,0,0,1-.13.28,7.61,7.61,0,0,0-1-.1,3.89,3.89,0,0,0-1.32.18,1.71,1.71,0,0,0-.92.56.63.63,0,0,0,0,.77,1.25,1.25,0,0,0,.58.45,2.37,2.37,0,0,0,1,.09l1.2-.11a5.1,5.1,0,0,1,2,.19A2.52,2.52,0,0,1,142.75,420Z"/><path class="cls-7" d="M165.86,430.57C139.53,439.93,113.17,449.16,87,459l-2-2.46c26.05-10.07,52.29-19.57,78.54-29.07Z"/><path class="cls-7" d="M146.67,448.07q-26.23,9.85-52.25,20.2l-1.93-2.41q25.82-10.71,51.79-21Z"/><path class="cls-7" d="M155.19,451.48Q126.95,462.39,99,473.94l1.89,2.36q28.23-11.16,56.68-21.71Z"/><path class="cls-7" d="M189.45,468.74C166.11,478.8,143,489.35,120,500l1.75,2.16c23.23-10.41,46.51-20.63,70-30.49Z"/><path class="cls-7" d="M163.06,469.58c-16.73,7.11-33.31,14.57-49.91,22L115,493.8c16.76-7.19,33.53-14.34,50.44-21.2Z"/><path class="cls-7" d="M163.71,462.71c-18.41,7.59-36.66,15.52-54.9,23.48l-1.85-2.3c18.09-8.18,36.16-16.42,54.42-24.24Z"/><path class="cls-7" d="M182.48,483.13q-20.83,9.42-41.46,19.26l-1.69-2.06c13.59-6.8,27.19-13.57,40.91-20.12Z"/><path class="cls-7" d="M136.5,504.53,127,509l-1.69-2.09c4.08-2,5.95-2.93,9.47-4.67Z"/><path class="cls-7" d="M132.21,515.38c14.61-7,29.17-14.07,43.86-20.86l-1.55-2c-15,6.45-29.82,13.22-44.68,19.93Z"/><path class="cls-7" d="M179.78,492.81l7.49-3.4-1.52-2c-3.28,1.39-4.8,2-7.75,3.3Z"/></g><g id="Hand_mit_Stift" data-name="Hand mit Stift"><path class="cls-8" d="M209.89,478.55s-6.73-2.61-10-11.13-15.4-10.58-15.26-4.54,10,16.08,11.68,18.7,3.71,11.27,6.19,15.25,26,22.13,30.79,37.66c6-.27,13.17-3.56,13.17-3.56C238,509.77,209.89,478.55,209.89,478.55Z"/><polygon class="cls-9" points="181.93 493.3 185.64 491.31 183.33 489.36 181.93 493.3"/><polygon class="cls-9" points="185.8 482.42 183.33 489.36 185.64 491.31 192.42 487.69 185.84 482.39 185.8 482.42"/><path class="cls-9" d="M245.19,437.11c-.52-3.19-2.35-5.32-6.15-5.83l-53.2,51.11,6.58,5.3.09-.05Z"/><path class="cls-10" d="M224.4,490.16c-1.32-6.17-2.54-32.4-3.09-37.88-.35-3.47-10.65-3.19-20-1-3.35,0-13.44,9.39-13.44,9.39l14.74,6.19s-1.47-3.87,2-5.43c2.75-.23,3.42-.58,4.55,0,3,1.66.35,7-.79,9.73-.36.85-2.61,2.06-4.26,2.05a10.42,10.42,0,0,0-2,2.21l-2,1.64L208,490.2l28.61,28.95,6.69,8s5.27-6.88,5.7-10C249,517.19,225.78,496.66,224.4,490.16Z"/><path class="cls-11" d="M228.75,486.34c-1.31-6.17-2.54-32.4-3.09-37.88-.34-3.47-10.65-3.19-20-1-3.36,0-13.44,9.39-13.44,9.39l7.32,5.14a48.74,48.74,0,0,1,8-5.23,10.85,10.85,0,0,1,5.91.89c3,1.66.36,7-.78,9.73-.36.85-2.61,2.06-4.26,2.05a10.19,10.19,0,0,0-2,2.22l-2,1.63,7.92,13.06,28.61,29,6.69,8s5.27-6.88,5.7-10C253.33,513.37,230.14,492.84,228.75,486.34Z"/><polygon class="cls-12" points="181.93 490.39 185.64 488.4 183.33 486.45 181.93 490.39"/><polygon class="cls-13" points="185.8 479.51 183.33 486.45 185.64 488.4 192.42 484.78 185.84 479.48 185.8 479.51"/><path class="cls-14" d="M245.19,434.2c-.52-3.19-2.35-5.32-6.15-5.83l-53.2,51.11,6.58,5.3.09,0Z"/><path class="cls-11" d="M211.1,471s-6.74-2.61-10-11.13-15.39-10.58-15.25-4.54,10,16.08,11.68,18.7,3.71,11.27,6.18,15.25,26,22.13,30.79,37.66c6-.27,13.17-3.56,13.17-3.56C239.22,502.2,211.1,471,211.1,471Z"/><path class="cls-15" d="M196.23,453.39l-.37.31.1.07.5.34.33.23.47.37.34.28.43.4.34.34c.13.13.26.26.38.4s.24.27.35.41l.33.41c.12.16.23.33.34.49s.19.27.27.41a6,6,0,0,1,.35.61c.07.12.14.23.2.35.17.34.32.68.46,1l.33.78.62-.45C202.19,457.23,199.66,452.89,196.23,453.39Z"/><path class="cls-16" d="M193.55,457.8s-1.68-3.83-2.93-4.45a2.92,2.92,0,0,0-3.41,0c-1.31,1-.57,3.23-.57,3.23a16.78,16.78,0,0,0,2,3.84A30.59,30.59,0,0,0,193.55,457.8Z"/><path class="cls-7" d="M253.33,508s-22.09,10.34-25.64,21.33c4.52,8.08,41,72.26,41,72.26l74.44-22.15Z"/></g><g id="whoosh"><path class="cls-17" d="M202.6,280a247.73,247.73,0,0,0-23.87,11.31l-2.86,1.59-1.45.77-1.41.82c-1.87,1.12-3.78,2.16-5.61,3.32s-3.69,2.29-5.54,3.44-3.57,2.46-5.37,3.67-3.57,2.47-5.32,3.76l-2.62,1.93-1.31,1c-.42.36-.85.68-1.27,1l-5.12,4c-.88.65-1.67,1.4-2.49,2.11l-2.49,2.13c-3.38,2.78-6.5,5.84-9.76,8.82-1.71,1.42-3.15,3.07-4.76,4.61L119,336.65,116.5,339l-.33-.24,4.12-5.24c1.39-1.73,2.69-3.54,4.23-5.15l4.47-4.95,1.12-1.24c.38-.41.79-.78,1.18-1.17l2.39-2.33a153.48,153.48,0,0,1,43.71-30.17,128.64,128.64,0,0,1,25.13-8.84Z"/><path class="cls-17" d="M190.66,310.37a247.26,247.26,0,0,0-22.52,13.82l-2.67,1.89-1.35.91-1.31,1c-1.74,1.31-3.53,2.55-5.23,3.91s-3.42,2.67-5.13,4-3.29,2.83-4.95,4.23-3.28,2.84-4.88,4.3l-2.4,2.21-1.2,1.1c-.37.39-.77.76-1.15,1.15l-4.66,4.57c-.8.75-1.5,1.57-2.24,2.37l-2.25,2.38c-3.06,3.13-5.83,6.51-8.75,9.82-1.54,1.6-2.8,3.4-4.23,5.1l-2.12,2.58-2.21,2.55-.35-.2,3.53-5.66c1.2-1.87,2.3-3.81,3.65-5.57l3.91-5.41,1-1.35c.33-.45.7-.86,1.05-1.29l2.13-2.57a153,153,0,0,1,40.2-34.71,128.1,128.1,0,0,1,24-11.5Z"/><path class="cls-17" d="M207.05,325.08a244.09,244.09,0,0,0-20.42,16.76l-2.39,2.23L183,345.16l-1.17,1.15c-1.54,1.53-3.14,3-4.64,4.58s-3,3.12-4.53,4.68-2.88,3.25-4.33,4.87-2.86,3.25-4.25,4.92L162,367.87l-1,1.26c-.32.44-.66.86-1,1.3l-4,5.16c-.69.85-1.28,1.77-1.9,2.66l-1.9,2.66c-2.61,3.52-4.89,7.24-7.33,10.93-1.32,1.79-2.31,3.75-3.5,5.63l-1.75,2.84-1.84,2.82-.37-.15,2.73-6.08c.93-2,1.75-4.09,2.85-6l3.14-5.88.78-1.48c.27-.48.58-.94.87-1.42l1.75-2.84a153.06,153.06,0,0,1,35.09-39.86,128.11,128.11,0,0,1,22.24-14.68Z"/></g></svg>