<svg xmlns="http://www.w3.org/2000/svg" xmlns:xlink="http://www.w3.org/1999/xlink" viewBox="0 0 375 667"><defs><style>.cls-1,.cls-30{fill:#22463c;}.cls-2{fill:#bca28e;}.cls-3{fill:#2e5b4c;}.cls-4{fill:#589344;}.cls-5{fill:#6daf54;}.cls-6{fill:#5d9947;}.cls-7{fill:#e5731f;}.cls-8{fill:#e0701e;}.cls-9{fill:#f47e1e;}.cls-10{fill:#6aa559;}.cls-11{fill:url(#Unbenannter_Verlauf_17);}.cls-12{fill:#edeae6;}.cls-13{fill:#d3cdc7;}.cls-14{fill:#fcfcfc;}.cls-15{fill:#d35e5e;}.cls-16{fill:#a5a1a1;stroke:#b2afaf;stroke-miterlimit:10;}.cls-17{fill:#e26464;}.cls-18{fill:#f27979;}.cls-19{fill:#3e705d;}.cls-20{fill:#bc8850;}.cls-21{fill:#d6a472;}.cls-22{fill:#31604f;}.cls-23{fill:#593a26;}.cls-24{fill:#e5c439;}.cls-25{fill:#efce43;}.cls-26{fill:#389e61;}.cls-27{fill:#42ad70;}.cls-28{fill:#4abc7d;}.cls-29{fill:#4dcb8b;}.cls-30{opacity:0.53;}.cls-31{fill:#f9d43a;}.cls-32{font-size:22px;fill:#fff2ee;font-family:BalooTamma2-Medium, "Baloo Tamma 2";font-weight:500;}.cls-33{fill:#e5e5e5;}</style><linearGradient id="Unbenannter_Verlauf_17" x1="255.8" y1="339.52" x2="354.23" y2="339.52" gradientUnits="userSpaceOnUse"><stop offset="0" stop-color="#fff"/><stop offset="0.33" stop-color="#f5faf4"/><stop offset="0.36" stop-color="#e2efde"/><stop offset="0.4" stop-color="#c6dfbe"/><stop offset="0.45" stop-color="#aed2a2"/><stop offset="0.5" stop-color="#9ac78b"/><stop offset="0.56" stop-color="#8bbe7a"/><stop offset="0.64" stop-color="#81b86e"/><stop offset="0.74" stop-color="#7bb567"/><stop offset="1" stop-color="#79b465"/></linearGradient></defs><title>Slide 3</title><g id="Korb"><path class="cls-1" d="M187.6,345.44s-4.47,22.33,44.66,46.89c62.52-13.4,118.34-40.19,118.34-40.19s-8.93-20.1-38-46.9C252.35,318.64,189.83,341,187.6,345.44Z"/><path class="cls-2" d="M188.71,402.38s4.47,13.4,43.55,36.84C294.78,425.82,350.6,399,350.6,399s-13.39-20.1-42.42-46.89C247.89,365.53,191,397.91,188.71,402.38Z"/><path class="cls-3" d="M312.64,305.24s2.24,20.1-4.46,46.9c4.46,4.46,33.49,31.26,42.42,46.89a139.8,139.8,0,0,0,0-46.89S328.27,316.41,312.64,305.24Z"/><path class="cls-4" d="M297.85,341.46c-.33,2.3-1.64,3.61-5.58,3.61s-13.11-8.52-13.11-2,4.26,4.27,4.26,4.27-2,10.48-6.88,8.52-3,6.23-3,6.23-2.3,4.59-5.9,1.64-3.61,6.22-3.61,6.22,8.85,9.51,12.13,3.94S287,371,287,375.56s15.41,3.27,15.08,0,1-9.84,3.6-10.82,6.23-1.64,7.54,0,10.49-1.31,8.2-3.94-8.52-4.26-7.54-7.21.65-12.78-2-10.49-7.54,7.33-7.54,2.95a18.08,18.08,0,0,1,1.38-5.54l-5,5.54S299.21,341.37,297.85,341.46Z"/><path class="cls-5" d="M271.46,346.38c1.76,1.51,2.17,3.32.07,6.64s-14.21,6.53-8.67,10,5.88-1.32,5.88-1.32,7.81,7.27,3.52,10.37,3.69,5.82,3.69,5.82,2.65,4.4-1.77,5.87,3.33,6.37,3.33,6.37,12.77-2.4,9.81-8.14,3.29-10.72,7.17-8.27,11-11.27,8.06-12.74-7.79-6.09-7.22-8.83,1.95-6.14,4-6.38,4.5-9.56,1.06-9-8.16,4.92-10.13,2.51-10.45-7.39-9.91-3.94,2.16,10.28-1.54,7.95a18.16,18.16,0,0,1-3.95-4.13l2,7.17S272.1,345.18,271.46,346.38Z"/><path class="cls-6" d="M306.39,376.67c-2-1.24-2.61-3-1-6.56s13.18-8.42,7.21-11.13S307,361.1,307,361.1s-8.75-6.12-4.93-9.79-4.45-5.25-4.45-5.25-3.23-4,.94-6.05-4.18-5.86-4.18-5.86-12.32,4.14-8.59,9.43-1.78,11.07-6,9.17-9.34,12.68-6.22,13.74,8.55,4.95,8.36,7.75-1.08,6.34-3.11,6.86-3.13,10.1.2,9.09,7.4-6,9.68-3.89,11.38,5.87,10.37,2.54-3.56-9.89.42-8.09a18.18,18.18,0,0,1,4.48,3.54l-3-6.82S305.92,378,306.39,376.67Z"/><path class="cls-7" d="M286,361s-19.55,5-30.8,9.72c11,5.9,30.64,3.21,30.64,3.21S292.87,366.69,286,361Z"/><path class="cls-8" d="M286.32,370.92s-20-2.9-32.17-2.91c7.89,9.69,27,14.78,27,14.78S290.48,378.84,286.32,370.92Z"/><path class="cls-9" d="M282.21,381.66s-15.63-12.77-26.07-19.06c1.77,12.38,15.56,26.59,15.56,26.59S281.7,390.59,282.21,381.66Z"/><polygon class="cls-10" points="328 290 337.84 293.61 297.61 340.54 328 290"/><path class="cls-10" d="M340.13,294.92s4.59,1.31,4.92,5.24C327.68,313.27,301,338.49,301,338.49l-1.81-1.94Z"/><path class="cls-11" d="M322.1,292.62S308,318.85,296.54,333.27s-37.05,37-37.05,37-7.21,6.21-1.47,12.78,11,2.63,14.59-4.91,30.81-39.67,30.81-39.67L354.23,308,347,302.78l-45.57,32.78L329,294.26Z"/><polygon class="cls-12" points="270.31 364.08 271.62 387.36 245.73 387.36 244.63 367.02 270.31 364.08"/><polygon class="cls-13" points="271.62 355.23 273.26 384.08 271.47 384.66 270.31 364.08 271.62 355.23"/><polygon class="cls-14" points="270.31 364.08 244.63 367.02 245.71 358.28 271.57 355.31 270.31 364.08"/><rect class="cls-15" x="215.46" y="366.43" width="26.04" height="30.38"/><ellipse class="cls-16" cx="228.48" cy="366" rx="13.02" ry="3.91"/><rect class="cls-17" x="210.25" y="375.11" width="26.04" height="30.38"/><ellipse class="cls-16" cx="223.27" cy="374.68" rx="13.02" ry="3.91"/><rect class="cls-17" x="238.02" y="375.11" width="26.04" height="30.38"/><ellipse class="cls-16" cx="251.04" cy="374.68" rx="13.02" ry="3.91"/><rect class="cls-18" x="228.48" y="384.66" width="26.04" height="30.38"/><ellipse class="cls-16" cx="241.5" cy="384.22" rx="13.02" ry="3.91"/><path class="cls-19" d="M187.6,345.44s-4.47,31.26,0,55.82c6.69,15.63,24.56,24.56,44.66,38-2.24-20.09,0-49.12,0-49.12S198.76,376.7,187.6,345.44Z"/><ellipse class="cls-20" cx="327.31" cy="356.51" rx="48.04" ry="19.81" transform="translate(-120.58 539.9) rotate(-69.71)"/><path class="cls-21" d="M324,331.59s13,4.6,22.48,4C337.21,330.74,324,331.59,324,331.59Z"/><path class="cls-21" d="M318.82,342.87s12.94,4.61,22.48,4C332,342,318.82,342.87,318.82,342.87Z"/><path class="cls-21" d="M312.74,354.15s12.94,4.61,22.48,4C325.93,353.3,312.74,354.15,312.74,354.15Z"/><path class="cls-21" d="M308.4,365.43s12.94,4.61,22.48,4C321.59,364.58,308.4,365.43,308.4,365.43Z"/><path class="cls-22" d="M350.6,352.14s-62.52,31.26-118.34,38a299.56,299.56,0,0,0,0,49.12S308.18,421.36,350.6,399C352.84,376.7,352.84,367.77,350.6,352.14Z"/><path class="cls-23" d="M255.7,319.76s15.18-13.79,31.26,0c15.63,13.4,17.76,54.08,17.76,54.08-1,3.09-3.09,3.77-6.25,2.13,0,0-9.27-45.05-24.9-54-22.11-12.63-33.82,2.9-33.82,2.9C246.77,326.46,253.47,322,255.7,319.76Z"/><path class="cls-23" d="M250.56,318l16.11-3.72-1.74,1.86S256.58,318.37,250.56,318Z"/></g><g id="Geld"><ellipse class="cls-24" cx="91" cy="559" rx="11.57" ry="9"/><ellipse class="cls-24" cx="49" cy="571" rx="11.57" ry="9"/><ellipse class="cls-25" cx="125" cy="549" rx="11.57" ry="9"/><polygon class="cls-26" points="193 514 253 496 268 518 207 534 193 514"/><polygon class="cls-27" points="197 510 257 492 272 514 211 530 197 510"/><polygon class="cls-28" points="200 505 260 487 275 509 214 525 200 505"/><polygon class="cls-29" points="203 499 263 481 278 503 217 519 203 499"/><ellipse class="cls-30" cx="241" cy="500" rx="11.57" ry="9"/><ellipse class="cls-31" cx="159" cy="540" rx="11.57" ry="9"/><text class="cls-32" transform="translate(235.98 508.99) rotate(-20.29)">€</text></g><g id="Ebene_7" data-name="Ebene 7"><path class="cls-33" d="M277,392c7.57-2.28,15.16-4.41,22.71-6.62l5.65-1.69c1.88-.55,3.77-1.12,5.64-1.72,3.75-1.14,7.5-2.32,11.22-3.58s7.44-2.48,11.13-3.82,7.36-2.71,11-4.13q11-4.32,21.63-9.44a136.76,136.76,0,0,1-20.71,11.59l-2.7,1.24L339.85,375c-1.82.79-3.66,1.51-5.51,2.24-3.69,1.43-7.43,2.75-11.18,4-1.88.63-3.78,1.19-5.67,1.78s-3.79,1.15-5.69,1.67-3.82,1-5.74,1.53-3.83,1-5.76,1.41C292.6,389.43,284.84,390.94,277,392Z"/><path class="cls-33" d="M253,412c7.57-2.28,15.16-4.41,22.71-6.62l5.65-1.69c1.88-.55,3.77-1.12,5.64-1.72,3.75-1.14,7.5-2.32,11.22-3.58s7.44-2.48,11.13-3.82,7.36-2.71,11-4.13q11-4.32,21.63-9.44a136.76,136.76,0,0,1-20.71,11.59l-2.7,1.24L315.85,395c-1.82.79-3.66,1.51-5.51,2.24-3.69,1.43-7.43,2.75-11.18,4-1.88.63-3.78,1.19-5.67,1.78s-3.79,1.15-5.69,1.67-3.82,1-5.74,1.53-3.83,1-5.76,1.41C268.6,409.43,260.84,410.94,253,412Z"/><path class="cls-33" d="M243,310.66c7.09-3.51,14.36-6.62,21.75-9.45,1.84-.72,3.69-1.42,5.56-2.06s3.72-1.33,5.6-1.95,3.76-1.24,5.66-1.81,3.78-1.17,5.68-1.71c3.82-1.06,7.65-2.06,11.51-2.95,1.94-.43,3.87-.86,5.82-1.23l2.91-.58,2.94-.48a135.92,135.92,0,0,1,23.65-2c-7.83,1.17-15.55,2.61-23.21,4.31-3.82.87-7.65,1.75-11.44,2.76s-7.59,2-11.36,3.08-7.54,2.17-11.3,3.33c-1.88.55-3.76,1.14-5.63,1.73l-5.62,1.78C258,305.81,250.56,308.3,243,310.66Z"/><path class="cls-33" d="M156,561c7.57-2.28,15.16-4.41,22.71-6.62l5.65-1.69c1.88-.55,3.77-1.12,5.64-1.72,3.75-1.14,7.5-2.32,11.22-3.58s7.44-2.48,11.13-3.82,7.36-2.71,11-4.13Q234.32,535.12,245,530a136.76,136.76,0,0,1-20.71,11.59l-2.7,1.24L218.85,544c-1.82.79-3.66,1.51-5.51,2.24-3.69,1.43-7.43,2.75-11.18,4-1.88.63-3.78,1.19-5.67,1.78s-3.79,1.15-5.69,1.67-3.82,1-5.74,1.53-3.83,1-5.76,1.41C171.6,558.43,163.84,559.94,156,561Z"/><path class="cls-33" d="M132,581c7.57-2.28,15.16-4.41,22.71-6.62l5.65-1.69c1.88-.55,3.77-1.12,5.64-1.72,3.75-1.14,7.5-2.32,11.22-3.58s7.44-2.48,11.13-3.82,7.36-2.71,11-4.13Q210.32,555.12,221,550a136.76,136.76,0,0,1-20.71,11.59l-2.7,1.24L194.85,564c-1.82.79-3.66,1.51-5.51,2.24-3.69,1.43-7.43,2.75-11.18,4-1.88.63-3.78,1.19-5.67,1.78s-3.79,1.15-5.69,1.67-3.82,1-5.74,1.53-3.83,1-5.76,1.41C147.6,578.43,139.84,579.94,132,581Z"/></g></svg>