<svg id="logo" xmlns="http://www.w3.org/2000/svg" width="69" height="72" viewBox="0 0 69 72">
  <rect id="Rectangle_1" data-name="Rectangle 1" width="69" height="72" rx="10" fill="#4dcb8b"/>
  <path id="Path_1" data-name="Path 1" d="M40.6,56.108A17.726,17.726,0,0,1,34.829,57a19.029,19.029,0,0,1-5.592-.748,16.152,16.152,0,0,1-3.953-1.726,5.973,5.973,0,0,1-1.757-1.611A3.718,3.718,0,0,1,23,50.844V13.46q.41-.115,1.171-.288A7.4,7.4,0,0,1,25.811,13a3.97,3.97,0,0,1,2.489.633,2.575,2.575,0,0,1,.791,2.129V30.246a18.009,18.009,0,0,1,2.986-1.237,12.6,12.6,0,0,1,3.865-.547,14.68,14.68,0,0,1,5.153.892A11.442,11.442,0,0,1,45.252,32,12.138,12.138,0,0,1,48,36.431a17.866,17.866,0,0,1,1,6.243A17.823,17.823,0,0,1,47.975,49a11.648,11.648,0,0,1-2.9,4.459A12.271,12.271,0,0,1,40.6,56.108Zm-9.264-4.573A11.716,11.716,0,0,0,34.8,52a7.917,7.917,0,0,0,5.923-2.324Q43,47.352,43,42.471q0-4.939-2.244-7.2A7.773,7.773,0,0,0,34.983,33a8.968,8.968,0,0,0-3.41.61A11.377,11.377,0,0,0,29,35.034V50.489A8.658,8.658,0,0,0,31.333,51.535Z" fill="#fff" fill-rule="evenodd" opacity="0.99"/>
</svg>
