<svg id="Icon" xmlns="http://www.w3.org/2000/svg" width="179" height="187" viewBox="0 0 179 187">
  <rect id="Rectangle_Copy_4" data-name="Rectangle Copy 4" width="179" height="187" rx="10" fill="#4dcb8b"/>
  <path id="b" d="M16.31,112.062A42.359,42.359,0,0,1,5.974,107.59a15.547,15.547,0,0,1-4.595-4.174A9.553,9.553,0,0,1,0,98.05V1.192Q1.073.894,3.062.448A19.525,19.525,0,0,1,7.351,0q4.442,0,6.508,1.639t2.069,5.517V44.682a47.456,47.456,0,0,1,7.81-3.2,33.229,33.229,0,0,1,10.107-1.415,38.7,38.7,0,0,1,13.478,2.311A29.944,29.944,0,0,1,58.2,49.229a31.433,31.433,0,0,1,7.2,11.48A45.9,45.9,0,0,1,68,76.882a45.788,45.788,0,0,1-2.681,16.4,30.147,30.147,0,0,1-7.579,11.552,32.2,32.2,0,0,1-11.717,6.858A46.735,46.735,0,0,1,30.936,114,50.237,50.237,0,0,1,16.31,112.062Z" transform="translate(60 34)" fill="#fff" opacity="0.99"/>
</svg>
