<svg width="69" height="72" viewBox="0 0 69 72" fill="none" xmlns="http://www.w3.org/2000/svg">
<rect width="69" height="72" rx="10" fill="#4DCB8B"/>
<path opacity="0.99" fill-rule="evenodd" clip-rule="evenodd" d="M40.5968 56.1082C38.8596 56.7027 36.9369 57 34.8288 57C32.7207 57 30.8566 56.7507 29.2365 56.252C27.6164 55.7534 26.2988 55.1781 25.2838 54.526C24.464 53.989 23.8784 53.452 23.527 52.915C23.1757 52.378 23 51.6876 23 50.8437V13.4603C23.2733 13.3836 23.6637 13.2877 24.1712 13.1726C24.6787 13.0575 25.2252 13 25.8108 13C26.9429 13 27.7725 13.211 28.2995 13.6329C28.8266 14.0548 29.0901 14.7644 29.0901 15.7617V30.2462C29.9489 29.7859 30.9444 29.3735 32.0766 29.0092C33.2087 28.6448 34.497 28.4626 35.9414 28.4626C37.7763 28.4626 39.494 28.7598 41.0946 29.3544C42.6952 29.9489 44.0811 30.8311 45.2523 32.001C46.4234 33.1709 47.3408 34.6476 48.0045 36.4312C48.6682 38.2148 49 40.2956 49 42.6737C49 45.0902 48.6584 47.1998 47.9752 49.0026C47.292 50.8054 46.3258 52.2917 45.0766 53.4616C43.8273 54.6315 42.3341 55.5137 40.5968 56.1082ZM31.3333 51.5352C32.3305 51.8451 33.4872 52 34.8034 52C37.2365 52 39.2108 51.2253 40.7265 49.6758C42.2422 48.1264 43 45.7248 43 42.4709C43 39.1784 42.2521 36.7768 40.7564 35.2661C39.2607 33.7554 37.3362 33 34.9829 33C33.7066 33 32.5698 33.2034 31.5726 33.6101C30.5755 34.0168 29.7179 34.4913 29 35.0336V50.4893C29.5584 50.8767 30.3362 51.2253 31.3333 51.5352Z" fill="#F9DAB0"/>
</svg>
